<?xml version="1.0"?>
<!-- Generated by SVGo -->
<svg width="1024" height="768"
     xmlns="http://www.w3.org/2000/svg" 
     xmlns:xlink="http://www.w3.org/1999/xlink">
<title>comp grid</title>
<rect x="0" y="0" width="1024" height="768" style="fill:white"/>
<g style="font-family:Calibri;font-size:16px;fill:black;text-anchor:middle;stroke-linecap:round;stroke-width:4px;stroke-opacity:1.0">
<rect x="19" y="19" width="152" height="422" style="fill-opacity:1.00;fill:rgb(100,100,100)"/>
<text x="95" y="230" style="fill:gray">client</text>
<polygon points="440,45 424,39 424,45 424,51" style="fill:rgb(190,190,190);fill-opacity:1.0"/>
<line x1="170" y1="45" x2="424" y2="45" style="stroke:rgb(190,190,190);fill:none"/>
<text x="297" y="39" style="text-anchor:middle;baseline-shift:20%;">(1) Authorization request</text>
<polygon points="170,95 186,89 186,95 186,101" style="fill:rgb(190,190,190);fill-opacity:1.0"/>
<line x1="186" y1="95" x2="440" y2="95" style="stroke:rgb(190,190,190);fill:none"/>
<text x="313" y="89" style="text-anchor:middle;baseline-shift:20%;">(2) Authorization grant</text>
<rect x="20" y="20" width="150" height="100" style="stroke:rgb(100,100,100);stroke-width:1;fill:rgb(100,100,100)"/>
<text x="95" y="70" style="font-size:15px;fill:white;baseline-shift:-25%"></text>
<polygon points="440,205 424,199 424,205 424,211" style="fill:rgb(190,190,190);fill-opacity:1.0"/>
<line x1="170" y1="205" x2="424" y2="205" style="stroke:rgb(190,190,190);fill:none"/>
<text x="297" y="199" style="text-anchor:middle;baseline-shift:20%;">(3) Auth Grant &amp; Client Credentials</text>
<polygon points="170,255 186,249 186,255 186,261" style="fill:rgb(190,190,190);fill-opacity:1.0"/>
<line x1="186" y1="255" x2="440" y2="255" style="stroke:rgb(190,190,190);fill:none"/>
<text x="313" y="249" style="text-anchor:middle;baseline-shift:20%;">(4) Access Token</text>
<rect x="20" y="180" width="150" height="100" style="stroke:rgb(100,100,100);stroke-width:1;fill:rgb(100,100,100)"/>
<text x="95" y="230" style="font-size:15px;fill:white;baseline-shift:-25%">client</text>
<polygon points="440,365 424,359 424,365 424,371" style="fill:rgb(190,190,190);fill-opacity:1.0"/>
<line x1="170" y1="365" x2="424" y2="365" style="stroke:rgb(190,190,190);fill:none"/>
<text x="297" y="359" style="text-anchor:middle;baseline-shift:20%;">(5) Acccess Token</text>
<polygon points="170,415 186,409 186,415 186,421" style="fill:rgb(190,190,190);fill-opacity:1.0"/>
<line x1="186" y1="415" x2="440" y2="415" style="stroke:rgb(190,190,190);fill:none"/>
<text x="313" y="409" style="text-anchor:middle;baseline-shift:20%;">(6) Protected Resource</text>
<rect x="20" y="340" width="150" height="100" style="stroke:rgb(100,100,100);stroke-width:1;fill:rgb(100,100,100)"/>
<text x="95" y="390" style="font-size:15px;fill:white;baseline-shift:-25%"></text>
<rect x="440" y="20" width="150" height="100" style="stroke:rgb(100,100,100);stroke-width:1;fill:rgb(100,100,100)"/>
<text x="515" y="70" style="font-size:15px;fill:white;baseline-shift:-25%">Resource Owner</text>
<rect x="440" y="180" width="150" height="100" style="stroke:rgb(100,100,100);stroke-width:1;fill:rgb(100,100,100)"/>
<text x="515" y="230" style="font-size:15px;fill:white;baseline-shift:-25%">Authorization Server</text>
<rect x="440" y="340" width="150" height="100" style="stroke:rgb(100,100,100);stroke-width:1;fill:rgb(100,100,100)"/>
<text x="515" y="390" style="font-size:15px;fill:white;baseline-shift:-25%">Resource Server</text>
</g>
</svg>
